<mxfile modified="2019-10-22T13:31:11.901Z" host="www.draw.io" agent="Mozilla/5.0 (Windows NT 10.0; Win64; x64) AppleWebKit/537.36 (KHTML, like Gecko) Chrome/77.0.3865.120 Safari/537.36" etag="mwFD3IsYMgHSSxMv1DHf" version="12.1.3" type="github" pages="1">
  <diagram id="edtNafhOueVqWPZp83Qx" name="Page-1">
    <mxGraphModel dx="1173" dy="658" grid="1" gridSize="10" guides="1" tooltips="1" connect="1" arrows="1" fold="1" page="1" pageScale="1" pageWidth="827" pageHeight="1169" math="0" shadow="0">
      <root>
        <mxCell id="0"/>
        <mxCell id="1" parent="0"/>
        <mxCell id="PyA_wQ1f-txAwc_Txc-h-2" style="edgeStyle=orthogonalEdgeStyle;rounded=0;orthogonalLoop=1;jettySize=auto;html=1;" parent="1" source="gaeCaFiwkaWdQa8wvfjB-41" target="gaeCaFiwkaWdQa8wvfjB-63" edge="1">
          <mxGeometry relative="1" as="geometry"/>
        </mxCell>
        <mxCell id="gaeCaFiwkaWdQa8wvfjB-41" value="" style="rounded=1;whiteSpace=wrap;html=1;" parent="1" vertex="1">
          <mxGeometry x="262.5" y="818" width="255" height="120" as="geometry"/>
        </mxCell>
        <mxCell id="gaeCaFiwkaWdQa8wvfjB-36" style="edgeStyle=orthogonalEdgeStyle;rounded=0;orthogonalLoop=1;jettySize=auto;html=1;" parent="1" source="gaeCaFiwkaWdQa8wvfjB-35" target="gaeCaFiwkaWdQa8wvfjB-34" edge="1">
          <mxGeometry relative="1" as="geometry"/>
        </mxCell>
        <mxCell id="gaeCaFiwkaWdQa8wvfjB-51" style="edgeStyle=orthogonalEdgeStyle;rounded=0;orthogonalLoop=1;jettySize=auto;html=1;entryX=1;entryY=0.5;entryDx=0;entryDy=0;" parent="1" source="gaeCaFiwkaWdQa8wvfjB-35" target="gaeCaFiwkaWdQa8wvfjB-47" edge="1">
          <mxGeometry relative="1" as="geometry"/>
        </mxCell>
        <mxCell id="gaeCaFiwkaWdQa8wvfjB-52" style="edgeStyle=orthogonalEdgeStyle;rounded=0;orthogonalLoop=1;jettySize=auto;html=1;entryX=1.022;entryY=0.539;entryDx=0;entryDy=0;entryPerimeter=0;" parent="1" source="gaeCaFiwkaWdQa8wvfjB-35" target="gaeCaFiwkaWdQa8wvfjB-49" edge="1">
          <mxGeometry relative="1" as="geometry"/>
        </mxCell>
        <mxCell id="gaeCaFiwkaWdQa8wvfjB-53" style="edgeStyle=orthogonalEdgeStyle;rounded=0;orthogonalLoop=1;jettySize=auto;html=1;entryX=1;entryY=0.5;entryDx=0;entryDy=0;" parent="1" source="gaeCaFiwkaWdQa8wvfjB-35" target="gaeCaFiwkaWdQa8wvfjB-50" edge="1">
          <mxGeometry relative="1" as="geometry"/>
        </mxCell>
        <mxCell id="gaeCaFiwkaWdQa8wvfjB-54" style="edgeStyle=orthogonalEdgeStyle;rounded=0;orthogonalLoop=1;jettySize=auto;html=1;entryX=1;entryY=0.5;entryDx=0;entryDy=0;" parent="1" source="gaeCaFiwkaWdQa8wvfjB-35" target="gaeCaFiwkaWdQa8wvfjB-48" edge="1">
          <mxGeometry relative="1" as="geometry"/>
        </mxCell>
        <mxCell id="gaeCaFiwkaWdQa8wvfjB-59" style="edgeStyle=orthogonalEdgeStyle;rounded=0;orthogonalLoop=1;jettySize=auto;html=1;entryX=0;entryY=0.5;entryDx=0;entryDy=0;" parent="1" source="gaeCaFiwkaWdQa8wvfjB-35" target="gaeCaFiwkaWdQa8wvfjB-55" edge="1">
          <mxGeometry relative="1" as="geometry"/>
        </mxCell>
        <mxCell id="gaeCaFiwkaWdQa8wvfjB-60" style="edgeStyle=orthogonalEdgeStyle;rounded=0;orthogonalLoop=1;jettySize=auto;html=1;entryX=0;entryY=0.5;entryDx=0;entryDy=0;" parent="1" source="gaeCaFiwkaWdQa8wvfjB-35" target="gaeCaFiwkaWdQa8wvfjB-57" edge="1">
          <mxGeometry relative="1" as="geometry"/>
        </mxCell>
        <mxCell id="gaeCaFiwkaWdQa8wvfjB-62" style="edgeStyle=orthogonalEdgeStyle;rounded=0;orthogonalLoop=1;jettySize=auto;html=1;entryX=0;entryY=0.5;entryDx=0;entryDy=0;" parent="1" source="gaeCaFiwkaWdQa8wvfjB-35" target="gaeCaFiwkaWdQa8wvfjB-56" edge="1">
          <mxGeometry relative="1" as="geometry"/>
        </mxCell>
        <mxCell id="PyA_wQ1f-txAwc_Txc-h-6" style="edgeStyle=orthogonalEdgeStyle;rounded=0;orthogonalLoop=1;jettySize=auto;html=1;" parent="1" source="gaeCaFiwkaWdQa8wvfjB-35" target="gaeCaFiwkaWdQa8wvfjB-58" edge="1">
          <mxGeometry relative="1" as="geometry"/>
        </mxCell>
        <mxCell id="gaeCaFiwkaWdQa8wvfjB-35" value="" style="rounded=1;whiteSpace=wrap;html=1;" parent="1" vertex="1">
          <mxGeometry x="310" y="530" width="160" height="120" as="geometry"/>
        </mxCell>
        <mxCell id="gaeCaFiwkaWdQa8wvfjB-1" value="高温豆粕粉" style="rounded=0;whiteSpace=wrap;html=1;" parent="1" vertex="1">
          <mxGeometry x="208.5" y="373" width="120" height="60" as="geometry"/>
        </mxCell>
        <mxCell id="gaeCaFiwkaWdQa8wvfjB-2" value="脱脂豆粉模型" style="rounded=0;whiteSpace=wrap;html=1;" parent="1" vertex="1">
          <mxGeometry x="458.5" y="373" width="120" height="60" as="geometry"/>
        </mxCell>
        <mxCell id="gaeCaFiwkaWdQa8wvfjB-8" style="edgeStyle=orthogonalEdgeStyle;rounded=0;orthogonalLoop=1;jettySize=auto;html=1;entryX=0.5;entryY=0;entryDx=0;entryDy=0;" parent="1" source="gaeCaFiwkaWdQa8wvfjB-3" target="gaeCaFiwkaWdQa8wvfjB-2" edge="1">
          <mxGeometry relative="1" as="geometry">
            <Array as="points">
              <mxPoint x="443.5" y="333"/>
              <mxPoint x="518.5" y="333"/>
            </Array>
          </mxGeometry>
        </mxCell>
        <mxCell id="gaeCaFiwkaWdQa8wvfjB-3" value="大豆分离蛋白" style="rounded=0;whiteSpace=wrap;html=1;" parent="1" vertex="1">
          <mxGeometry x="428.5" y="203" width="30" height="100" as="geometry"/>
        </mxCell>
        <mxCell id="gaeCaFiwkaWdQa8wvfjB-14" style="edgeStyle=orthogonalEdgeStyle;rounded=0;orthogonalLoop=1;jettySize=auto;html=1;" parent="1" source="gaeCaFiwkaWdQa8wvfjB-4" target="gaeCaFiwkaWdQa8wvfjB-2" edge="1">
          <mxGeometry relative="1" as="geometry">
            <Array as="points">
              <mxPoint x="493.5" y="333"/>
              <mxPoint x="518.5" y="333"/>
            </Array>
          </mxGeometry>
        </mxCell>
        <mxCell id="gaeCaFiwkaWdQa8wvfjB-4" value="蔗 糖" style="rounded=0;whiteSpace=wrap;html=1;" parent="1" vertex="1">
          <mxGeometry x="478.5" y="203" width="30" height="100" as="geometry"/>
        </mxCell>
        <mxCell id="gaeCaFiwkaWdQa8wvfjB-16" style="edgeStyle=orthogonalEdgeStyle;rounded=0;orthogonalLoop=1;jettySize=auto;html=1;" parent="1" source="gaeCaFiwkaWdQa8wvfjB-15" edge="1">
          <mxGeometry relative="1" as="geometry">
            <mxPoint x="518.5" y="373" as="targetPoint"/>
            <Array as="points">
              <mxPoint x="563.5" y="333"/>
              <mxPoint x="518.5" y="333"/>
            </Array>
          </mxGeometry>
        </mxCell>
        <mxCell id="gaeCaFiwkaWdQa8wvfjB-15" value="葡 萄 糖" style="rounded=0;whiteSpace=wrap;html=1;glass=0;gradientColor=none;horizontal=1;" parent="1" vertex="1">
          <mxGeometry x="548.5" y="203" width="30" height="100" as="geometry"/>
        </mxCell>
        <mxCell id="gaeCaFiwkaWdQa8wvfjB-18" style="edgeStyle=orthogonalEdgeStyle;rounded=0;orthogonalLoop=1;jettySize=auto;html=1;entryX=0.5;entryY=0;entryDx=0;entryDy=0;" parent="1" source="gaeCaFiwkaWdQa8wvfjB-17" target="gaeCaFiwkaWdQa8wvfjB-2" edge="1">
          <mxGeometry relative="1" as="geometry">
            <Array as="points">
              <mxPoint x="613.5" y="333"/>
              <mxPoint x="518.5" y="333"/>
            </Array>
          </mxGeometry>
        </mxCell>
        <mxCell id="gaeCaFiwkaWdQa8wvfjB-17" value="大豆分离素" style="rounded=0;whiteSpace=wrap;html=1;" parent="1" vertex="1">
          <mxGeometry x="598.5" y="203" width="30" height="100" as="geometry"/>
        </mxCell>
        <mxCell id="gaeCaFiwkaWdQa8wvfjB-19" value="热处理" style="rounded=0;whiteSpace=wrap;html=1;" parent="1" vertex="1">
          <mxGeometry x="320" y="540" width="40" height="100" as="geometry"/>
        </mxCell>
        <mxCell id="gaeCaFiwkaWdQa8wvfjB-20" value="热化学改性" style="rounded=0;whiteSpace=wrap;html=1;" parent="1" vertex="1">
          <mxGeometry x="410" y="540" width="40" height="100" as="geometry"/>
        </mxCell>
        <mxCell id="gaeCaFiwkaWdQa8wvfjB-21" value="" style="endArrow=none;html=1;" parent="1" edge="1">
          <mxGeometry width="50" height="50" relative="1" as="geometry">
            <mxPoint x="267.5" y="480" as="sourcePoint"/>
            <mxPoint x="517.5" y="480" as="targetPoint"/>
          </mxGeometry>
        </mxCell>
        <mxCell id="gaeCaFiwkaWdQa8wvfjB-24" value="" style="endArrow=none;html=1;entryX=0.5;entryY=1;entryDx=0;entryDy=0;" parent="1" target="gaeCaFiwkaWdQa8wvfjB-1" edge="1">
          <mxGeometry width="50" height="50" relative="1" as="geometry">
            <mxPoint x="268.5" y="480" as="sourcePoint"/>
            <mxPoint x="318.5" y="470" as="targetPoint"/>
          </mxGeometry>
        </mxCell>
        <mxCell id="gaeCaFiwkaWdQa8wvfjB-25" value="" style="endArrow=none;html=1;entryX=0.5;entryY=1;entryDx=0;entryDy=0;" parent="1" target="gaeCaFiwkaWdQa8wvfjB-2" edge="1">
          <mxGeometry width="50" height="50" relative="1" as="geometry">
            <mxPoint x="518.5" y="480" as="sourcePoint"/>
            <mxPoint x="518.5" y="420" as="targetPoint"/>
          </mxGeometry>
        </mxCell>
        <mxCell id="gaeCaFiwkaWdQa8wvfjB-28" value="" style="endArrow=none;html=1;" parent="1" edge="1">
          <mxGeometry width="50" height="50" relative="1" as="geometry">
            <mxPoint x="388" y="510" as="sourcePoint"/>
            <mxPoint x="388" y="480" as="targetPoint"/>
          </mxGeometry>
        </mxCell>
        <mxCell id="gaeCaFiwkaWdQa8wvfjB-29" value="" style="endArrow=none;html=1;" parent="1" edge="1">
          <mxGeometry width="50" height="50" relative="1" as="geometry">
            <mxPoint x="340" y="510" as="sourcePoint"/>
            <mxPoint x="430" y="510" as="targetPoint"/>
          </mxGeometry>
        </mxCell>
        <mxCell id="gaeCaFiwkaWdQa8wvfjB-32" value="" style="endArrow=none;html=1;exitX=0.5;exitY=0;exitDx=0;exitDy=0;" parent="1" source="gaeCaFiwkaWdQa8wvfjB-19" edge="1">
          <mxGeometry width="50" height="50" relative="1" as="geometry">
            <mxPoint x="397.5" y="510" as="sourcePoint"/>
            <mxPoint x="340" y="510" as="targetPoint"/>
          </mxGeometry>
        </mxCell>
        <mxCell id="gaeCaFiwkaWdQa8wvfjB-33" value="" style="endArrow=none;html=1;exitX=0.5;exitY=0;exitDx=0;exitDy=0;" parent="1" source="gaeCaFiwkaWdQa8wvfjB-20" edge="1">
          <mxGeometry width="50" height="50" relative="1" as="geometry">
            <mxPoint x="307.5" y="550" as="sourcePoint"/>
            <mxPoint x="430" y="510" as="targetPoint"/>
          </mxGeometry>
        </mxCell>
        <mxCell id="gaeCaFiwkaWdQa8wvfjB-70" style="edgeStyle=orthogonalEdgeStyle;rounded=0;orthogonalLoop=1;jettySize=auto;html=1;" parent="1" source="gaeCaFiwkaWdQa8wvfjB-34" target="gaeCaFiwkaWdQa8wvfjB-45" edge="1">
          <mxGeometry relative="1" as="geometry">
            <Array as="points">
              <mxPoint x="390" y="779"/>
              <mxPoint x="440" y="779"/>
            </Array>
          </mxGeometry>
        </mxCell>
        <mxCell id="gaeCaFiwkaWdQa8wvfjB-71" style="edgeStyle=orthogonalEdgeStyle;rounded=0;orthogonalLoop=1;jettySize=auto;html=1;" parent="1" source="gaeCaFiwkaWdQa8wvfjB-34" target="gaeCaFiwkaWdQa8wvfjB-44" edge="1">
          <mxGeometry relative="1" as="geometry"/>
        </mxCell>
        <mxCell id="gaeCaFiwkaWdQa8wvfjB-72" style="edgeStyle=orthogonalEdgeStyle;rounded=0;orthogonalLoop=1;jettySize=auto;html=1;" parent="1" source="gaeCaFiwkaWdQa8wvfjB-34" target="gaeCaFiwkaWdQa8wvfjB-43" edge="1">
          <mxGeometry relative="1" as="geometry">
            <Array as="points">
              <mxPoint x="390" y="779"/>
              <mxPoint x="345" y="779"/>
            </Array>
          </mxGeometry>
        </mxCell>
        <mxCell id="gaeCaFiwkaWdQa8wvfjB-73" style="edgeStyle=orthogonalEdgeStyle;rounded=0;orthogonalLoop=1;jettySize=auto;html=1;" parent="1" source="gaeCaFiwkaWdQa8wvfjB-34" target="gaeCaFiwkaWdQa8wvfjB-42" edge="1">
          <mxGeometry relative="1" as="geometry">
            <Array as="points">
              <mxPoint x="390" y="779"/>
              <mxPoint x="297" y="779"/>
            </Array>
          </mxGeometry>
        </mxCell>
        <mxCell id="gaeCaFiwkaWdQa8wvfjB-74" style="edgeStyle=orthogonalEdgeStyle;rounded=0;orthogonalLoop=1;jettySize=auto;html=1;" parent="1" source="gaeCaFiwkaWdQa8wvfjB-34" target="gaeCaFiwkaWdQa8wvfjB-46" edge="1">
          <mxGeometry relative="1" as="geometry">
            <Array as="points">
              <mxPoint x="390" y="779"/>
              <mxPoint x="487" y="779"/>
            </Array>
          </mxGeometry>
        </mxCell>
        <mxCell id="gaeCaFiwkaWdQa8wvfjB-34" value="脱脂豆粉胶黏剂" style="rounded=0;whiteSpace=wrap;html=1;" parent="1" vertex="1">
          <mxGeometry x="330" y="699" width="120" height="60" as="geometry"/>
        </mxCell>
        <mxCell id="gaeCaFiwkaWdQa8wvfjB-40" value="+MPA" style="text;html=1;resizable=0;points=[];autosize=1;align=left;verticalAlign=top;spacingTop=-4;" parent="1" vertex="1">
          <mxGeometry x="390" y="670" width="50" height="20" as="geometry"/>
        </mxCell>
        <mxCell id="gaeCaFiwkaWdQa8wvfjB-42" value="物化特性" style="rounded=0;whiteSpace=wrap;html=1;" parent="1" vertex="1">
          <mxGeometry x="282.5" y="828" width="30" height="100" as="geometry"/>
        </mxCell>
        <mxCell id="gaeCaFiwkaWdQa8wvfjB-43" value="胶接性能" style="rounded=0;whiteSpace=wrap;html=1;" parent="1" vertex="1">
          <mxGeometry x="330" y="828" width="30" height="100" as="geometry"/>
        </mxCell>
        <mxCell id="gaeCaFiwkaWdQa8wvfjB-44" value="固化结构" style="rounded=0;whiteSpace=wrap;html=1;" parent="1" vertex="1">
          <mxGeometry x="375" y="828" width="30" height="100" as="geometry"/>
        </mxCell>
        <mxCell id="gaeCaFiwkaWdQa8wvfjB-45" value="耐水特效" style="rounded=0;whiteSpace=wrap;html=1;" parent="1" vertex="1">
          <mxGeometry x="425" y="828" width="30" height="100" as="geometry"/>
        </mxCell>
        <mxCell id="gaeCaFiwkaWdQa8wvfjB-46" value="胶层形貌" style="rounded=0;whiteSpace=wrap;html=1;" parent="1" vertex="1">
          <mxGeometry x="472.5" y="828" width="30" height="100" as="geometry"/>
        </mxCell>
        <mxCell id="gaeCaFiwkaWdQa8wvfjB-47" value="功能基分析" style="rounded=0;whiteSpace=wrap;html=1;" parent="1" vertex="1">
          <mxGeometry x="142.5" y="519" width="120" height="30" as="geometry"/>
        </mxCell>
        <mxCell id="gaeCaFiwkaWdQa8wvfjB-48" value="反应活性分析" style="rounded=0;whiteSpace=wrap;html=1;" parent="1" vertex="1">
          <mxGeometry x="142.5" y="631" width="120" height="30" as="geometry"/>
        </mxCell>
        <mxCell id="gaeCaFiwkaWdQa8wvfjB-49" value="结晶度分析" style="rounded=0;whiteSpace=wrap;html=1;" parent="1" vertex="1">
          <mxGeometry x="142.5" y="554" width="120" height="30" as="geometry"/>
        </mxCell>
        <mxCell id="gaeCaFiwkaWdQa8wvfjB-50" value="微观形态分析" style="rounded=0;whiteSpace=wrap;html=1;" parent="1" vertex="1">
          <mxGeometry x="142.5" y="592.5" width="120" height="30" as="geometry"/>
        </mxCell>
        <mxCell id="gaeCaFiwkaWdQa8wvfjB-55" value="功能基分析" style="rounded=0;whiteSpace=wrap;html=1;" parent="1" vertex="1">
          <mxGeometry x="520" y="519.5" width="120" height="30" as="geometry"/>
        </mxCell>
        <mxCell id="gaeCaFiwkaWdQa8wvfjB-56" value="反应活性分析" style="rounded=0;whiteSpace=wrap;html=1;" parent="1" vertex="1">
          <mxGeometry x="520" y="629" width="120" height="30" as="geometry"/>
        </mxCell>
        <mxCell id="gaeCaFiwkaWdQa8wvfjB-57" value="结晶度分析" style="rounded=0;whiteSpace=wrap;html=1;" parent="1" vertex="1">
          <mxGeometry x="520" y="556" width="120" height="30" as="geometry"/>
        </mxCell>
        <mxCell id="gaeCaFiwkaWdQa8wvfjB-58" value="微观形态分析" style="rounded=0;whiteSpace=wrap;html=1;" parent="1" vertex="1">
          <mxGeometry x="520" y="592" width="120" height="30" as="geometry"/>
        </mxCell>
        <mxCell id="gaeCaFiwkaWdQa8wvfjB-63" value="热化学改性对大豆胶粘剂结构与性能的作用机理" style="rounded=0;whiteSpace=wrap;html=1;" parent="1" vertex="1">
          <mxGeometry x="243.5" y="970" width="293" height="60" as="geometry"/>
        </mxCell>
        <mxCell id="b2VupkUFswHgS_7RCgm6-3" style="edgeStyle=orthogonalEdgeStyle;rounded=0;orthogonalLoop=1;jettySize=auto;html=1;entryX=0.5;entryY=0;entryDx=0;entryDy=0;" edge="1" parent="1" source="b2VupkUFswHgS_7RCgm6-2" target="gaeCaFiwkaWdQa8wvfjB-1">
          <mxGeometry relative="1" as="geometry"/>
        </mxCell>
        <mxCell id="b2VupkUFswHgS_7RCgm6-4" value="粉碎" style="text;html=1;resizable=0;points=[];align=center;verticalAlign=middle;labelBackgroundColor=#ffffff;" vertex="1" connectable="0" parent="b2VupkUFswHgS_7RCgm6-3">
          <mxGeometry x="-0.0029" y="7" relative="1" as="geometry">
            <mxPoint x="-25.5" y="-3" as="offset"/>
          </mxGeometry>
        </mxCell>
        <mxCell id="b2VupkUFswHgS_7RCgm6-2" value="高温豆粕" style="rounded=0;whiteSpace=wrap;html=1;" vertex="1" parent="1">
          <mxGeometry x="208.5" y="253" width="120" height="60" as="geometry"/>
        </mxCell>
      </root>
    </mxGraphModel>
  </diagram>
</mxfile>
